<?xml version="1.0" encoding="UTF-8" standalone="no"?>
<!DOCTYPE svg PUBLIC "-//W3C//DTD SVG 20010904//EN"
              "http://www.w3.org/TR/2001/REC-SVG-20010904/DTD/svg10.dtd">

<svg xmlns="http://www.w3.org/2000/svg"
     width="3.8in" height="5.78889in"
     viewBox="0 0 342 521">
  <path id="Imported Path"
        fill="none" stroke="black" stroke-width="1"
        d="M 151.04,356.81
           C 149.14,381.02 144.04,409.04 135.04,428.85
             175.85,428.85 216.66,428.85 257.48,428.85
             258.58,420.34 261.98,414.14 263.88,406.43
             233.77,414.84 191.06,420.24 168.65,416.84
             170.15,397.53 173.45,373.01 177.45,353.60
             206.06,340.40 238.77,315.08 234.27,271.96
             231.67,247.14 214.96,234.84 199.86,220.73
             202.06,206.12 204.96,192.21 207.06,177.50
             200.36,175.70 190.26,177.20 182.25,176.70
             179.05,185.01 178.75,196.11 176.65,205.52
             172.35,203.12 167.85,201.02 164.65,197.51
             167.35,183.11 170.05,168.80 171.05,152.69
             181.75,137.58 191.86,121.77 203.86,107.86
             219.56,113.67 232.37,122.57 242.27,134.28
             246.27,126.17 248.57,112.36 249.47,103.86
             239.27,99.16 226.67,96.76 214.26,94.25
             231.07,65.74 252.07,41.42 270.28,14.21
             270.58,14.21 270.78,14.21 271.08,14.21
             271.08,13.41 271.08,12.61 271.08,11.81
             262.78,11.81 254.57,11.81 246.27,11.81
             229.77,39.32 212.56,66.14 195.06,92.65
             178.65,91.95 166.15,95.15 153.44,98.26
             144.84,69.44 136.74,40.32 127.84,11.81
             116.93,11.81 105.93,11.81 95.03,11.81
             105.23,15.81 106.43,27.12 110.23,39.02
             117.43,61.54 126.64,87.05 133.44,107.06
             116.13,121.77 88.83,146.98 102.23,179.90
             109.23,197.01 125.44,204.72 139.04,216.72
             136.94,234.03 135.94,252.55 127.84,263.95
             137.94,263.95 148.14,263.95 158.25,263.95
             158.05,254.65 158.55,240.64 159.85,230.33
             164.75,231.63 168.05,234.43 171.05,237.54
             166.05,272.06 160.45,305.88 154.25,339.20
             115.33,342.40 94.73,327.19 76.62,309.58
             74.02,316.58 74.72,326.89 71.02,332.79
             71.02,335.69 71.02,338.70 71.02,341.60
             91.43,352.70 118.03,360.91 151.04,356.81 Z
           M 194.26,254.35
           C 223.37,272.76 213.86,324.19 180.65,331.99
             185.35,306.28 189.36,279.86 194.26,254.35 Z
           M 144.64,182.30
           C 124.74,173.90 117.73,137.78 137.44,123.87
             147.34,138.98 149.24,160.19 144.64,182.30 Z
           M 157.45,111.86
           C 165.15,108.56 176.55,104.96 186.25,106.26
             180.15,117.77 172.55,127.77 166.25,139.08
             161.95,131.38 160.35,120.87 157.45,111.86 Z" />
</svg>
